<?xml version="1.0" encoding="utf-8"?>
<svg viewBox="0 0 2048 2048" xmlns="http://www.w3.org/2000/svg">
  <path style="stroke-width: 0.974679;" d="M 1024,1877.1961 H 476.80012 l 57.9499,-365 c 8.5125,-247.4124 13.3198,-217.4746 12.6865,-387.4746 970.70498,27.0931 -126.2833,-13.3748 978.72698,26.0339 -17.7547,178.678 -5.5711,122.7062 -12.9135,361.4407 l 57.95,365 z" id="path6-3" transform="matrix(1, 0, 0, 1, -2.842170943040401e-14, 2.842170943040401e-14)"/>
  <g id="g3957" transform="matrix(1, 0, 0, 1, -2.842170943040401e-14, 2.842170943040401e-14)">
    <g style="fill:#000000" transform="matrix(0.95,0,0,-1,51.200019,2082.1961)" id="g4">
      <path style="fill: rgb(128, 128, 128);" d="m 577,529 -26,-156 145,84 -119,72 z m 447,-324 -576,0 61,365 c 8.96045,247.41243 14.02081,217.47457 13.35415,387.47457 C 1544.1489,930.38147 389.42431,970.84933 1552.5932,931.44068 1533.904,752.76271 1546.7288,808.73446 1539,570 l 61,-365 -576,0 z m 0,74 489,0 -50,298 c -144,56 -290.3333,84 -439,84 -148.66667,0 -295,-28 -439,-84 l -50,-298 489,0 z m 447,250 26,-156 -145,84 119,72 z m -586,-27 141,84 137,-86 -141,-84 -137,86 z" id="path6"/>
    </g>
    <path id="path3827" d="m 607.45762,1397.1525 8.67797,-321.0848 824.40671,17.3559 0,312.4068 c -301.5664,-105.027 -500.46478,-107.6893 -833.08468,-8.6779 z" style="fill-opacity: 1; stroke: rgb(0, 0, 0); stroke-width: 1px; stroke-linecap: butt; stroke-linejoin: miter; stroke-opacity: 1;"/>
    <path id="path3878" d="M 555.38984,1336.4068 321.5494,1119.1111 315.64811,936.66979 650.84745,607.45763 1024,980.61017 l 373.1525,-373.15254 338.3316,338.48789 0.1091,164.83418 -260.3389,242.9829" style="fill-opacity: 1; stroke-width: 75; stroke-linecap: round; stroke-linejoin: round; stroke-miterlimit: 4; stroke-opacity: 1; stroke-dasharray: none; stroke: rgb(128, 128, 128);"/>
    <path id="path3929" d="m 1024,590.1017 338.4407,347.11864 -1e-4,147.52536 -329.7627,286.3729 L 702.91525,1067.3898 694.23729,937.22034 1024,590.1017 z" style="stroke-width: 75; stroke-linecap: butt; stroke-linejoin: round; stroke-opacity: 1; stroke-miterlimit: 4; stroke-dasharray: none; fill-opacity: 1; stroke: rgb(128, 128, 128);"/>
    <path id="path3933" style="fill: none; stroke-width: 75; stroke-linecap: round; stroke-linejoin: miter; stroke-opacity: 1; stroke-miterlimit: 4; stroke-dasharray: none; stroke: rgb(128, 128, 128);" d="M 514.829 1298.866 L 636.128 1408.851"/>
    <path id="path3933-0" d="M 1561.842 1273.023 L 1405.831 1414.509" style="fill: none; stroke-width: 75; stroke-linecap: round; stroke-linejoin: miter; stroke-miterlimit: 4; stroke-opacity: 1; stroke-dasharray: none; stroke: rgb(128, 128, 128);"/>
  </g>
</svg>