<svg width="40px" height="40px" viewBox="0 0 40 40" version="1.1" baseProfile="full" xmlns="http://www.w3.org/2000/svg" xmlns:xlink="http://www.w3.org/1999/xlink">
  <g id="5wp" transform="matrix(0.888889 0 0 0.888889 0 0)">
            <path transform="matrix(1 0 0 1 0 0)" d="M22.5 9C 20.29 9 18.5 10.79 18.5 13C 18.5 13.89 18.79 14.71 19.28 15.38C 17.33 16.5 16 18.59 16 21C 16 23.03 16.94 24.84 18.41 26.03C 15.41 27.09 11 31.58 11 39.5L11 39.5L34 39.5C 34 31.58 29.59 27.09 26.59 26.03C 28.06 24.84 29 23.03 29 21C 29 18.59 27.67 16.5 25.72 15.38C 26.21 14.71 26.5 13.89 26.5 13C 26.5 10.79 24.71 9 22.5 9z" stroke-width="1.5" stroke-linecap="round" fill-rule="nonzero" style="fill: rgb(255, 255, 255); stroke: rgb(0, 48, 168);"/>
        </g>
</svg>