<svg xmlns="http://www.w3.org/2000/svg" viewBox="0 0 512 512" style="height: 512px; width: 512px;"><defs><filter id="shadow-1" height="300%" width="300%" x="-100%" y="-100%"><feFlood flood-color="rgba(245, 166, 35, 1)" result="flood"></feFlood><feComposite in="flood" in2="SourceGraphic" operator="atop" result="composite"></feComposite><feGaussianBlur in="composite" stdDeviation="15" result="blur"></feGaussianBlur><feOffset dx="0" dy="0" result="offset"></feOffset><feComposite in="SourceGraphic" in2="offset" operator="over"></feComposite></filter><linearGradient x1="0" x2="0" y1="0" y2="1" id="lorc-body-swapping-gradient-0"><stop offset="0%" stop-color="#7ed321" stop-opacity="1"></stop><stop offset="100%" stop-color="#000" stop-opacity="1"></stop></linearGradient></defs><circle cx="256" cy="256" r="256" fill="url(#lorc-body-swapping-gradient-0)"></circle><g class="" transform="translate(0,0)" style=""><path d="M130.375 18.438c-19.615 0-36.445 9.542-47.594 24-11.147 14.457-17.093 33.652-17.093 54.25 0 17.877 4.543 35.74 12.626 50.124-11.008 4.402-20.228 11.397-27.5 20.125-9.997 11.997-16.583 27.02-21.126 43.5-9.085 32.964-10.125 72.204-10.125 107.594v9.345H61.595l9.968 154.78.563 8.75h116.53l.564-8.75 9.936-154.78h42.063v-9.344c0-35.39-1.04-74.63-10.126-107.592-4.543-16.482-11.13-31.504-21.125-43.5-7.27-8.723-16.504-15.723-27.5-20.125 8.08-14.385 12.624-32.25 12.624-50.125 0-20.598-5.977-39.793-17.125-54.25-11.15-14.458-27.98-24-47.595-24zm247.406 0c-19.614 0-36.444 9.542-47.592 24-11.15 14.457-17.094 33.652-17.094 54.25 0 17.877 4.542 35.74 12.625 50.124-11.01 4.402-20.228 11.397-27.5 20.125-9.998 11.997-16.584 27.02-21.126 43.5-9.086 32.964-10.156 72.204-10.156 107.594v9.345H309l9.938 154.78.562 8.75h116.438l.656-8.624 11.875-154.905h40.155v-9.344c0-35.39-1.07-74.63-10.156-107.592-4.544-16.482-11.13-31.504-21.126-43.5-7.273-8.73-16.493-15.724-27.5-20.125 8.082-14.386 12.625-32.248 12.625-50.125 0-20.598-5.947-39.793-17.095-54.25-11.148-14.458-27.98-24-47.594-24zM130.376 37.124c13.76 0 24.63 6.107 32.813 16.72 8.183 10.61 13.218 25.89 13.218 42.843 0 18.663-6.887 38.59-15.97 49.53l-10.124 12.188 15.594 2.938c12.812 2.408 22.058 8.406 29.688 17.562 6.238 7.487 11.222 17.262 15.062 28.656l-13.22 101.125h-14.75l-12.217-97.312-19.845 163.53-21.03-163.53-18.69 155.938L90.47 211.375l-11.72 97.313H61.812l-12.53-98.563c3.937-12.5 9.17-23.174 15.874-31.22 7.63-9.155 16.907-15.153 29.72-17.56l15.593-2.94-10.126-12.218c-9.083-10.94-15.97-30.836-15.97-49.5 0-16.95 5.037-32.23 13.22-42.843 8.182-10.612 19.02-16.72 32.78-16.72zM457.97 207.313c.888 2.62 1.73 5.307 2.5 8.093 7.436 26.984 9.094 60.96 9.342 93.28l-24.78.002 12.937-101.375zm-120.033 4.062l20.157 155.938 18.97-155.938 20.748 163.53L418 211.376l12.813 102.03-.313 3.908-11.875 154.906H337.03l-9.936-154.783-.563-8.75h-.436l11.844-97.312zM296 212.22l12.75 96.468h-23c.248-32.322 1.906-66.298 9.344-93.282.296-1.074.592-2.137.906-3.187z" fill="#f5a623" fill-opacity="1" filter="url(#shadow-1)"></path></g></svg>