<svg width="40px" height="40px" viewBox="0 0 40 40" version="1.1" baseProfile="full" xmlns="http://www.w3.org/2000/svg" xmlns:xlink="http://www.w3.org/1999/xlink">
  <g id="6wq" transform="matrix(0.888889 0 0 0.888889 0 0)">
            <path transform="matrix(1 0 0 1 0 0)" d="M8.75 12C 8.75 11.24061 8.481515 10.59243 7.944544 10.05546C 7.407573 9.518486 6.759392 9.25 6 9.25C 5.240609 9.25 4.592427 9.518486 4.055456 10.05546C 3.518486 10.59243 3.25 11.24061 3.25 12C 3.25 12.75939 3.518486 13.40757 4.055456 13.94454C 4.592427 14.48152 5.240609 14.75 6 14.75C 6.759392 14.75 7.407573 14.48152 7.944544 13.94454C 8.481515 13.40757 8.75 12.75939 8.75 12" stroke="none" fill-rule="nonzero" style="fill: rgb(255, 255, 255);"/>
            <path transform="matrix(1 0 0 1 0 0)" d="M16.75 9C 16.75 8.240608 16.48151 7.592427 15.94454 7.055456C 15.40757 6.518486 14.75939 6.25 14 6.25C 13.24061 6.25 12.59243 6.518486 12.05546 7.055456C 11.51849 7.592427 11.25 8.240608 11.25 9C 11.25 9.759392 11.51849 10.40757 12.05546 10.94454C 12.59243 11.48151 13.24061 11.75 14 11.75C 14.75939 11.75 15.40757 11.48151 15.94454 10.94454C 16.48151 10.40757 16.75 9.759392 16.75 9" stroke="none" fill-rule="nonzero" style="fill: rgb(255, 255, 255);"/>
            <path transform="matrix(1 0 0 1 0 0)" d="M25.25 8C 25.25 7.240609 24.98152 6.592428 24.44454 6.055456C 23.90757 5.518486 23.25939 5.25 22.5 5.25C 21.74061 5.25 21.09243 5.518486 20.55546 6.055456C 20.01849 6.592428 19.75 7.240609 19.75 8C 19.75 8.759392 20.01849 9.407574 20.55546 9.944544C 21.09243 10.48151 21.74061 10.75 22.5 10.75C 23.25939 10.75 23.90757 10.48151 24.44454 9.944544C 24.98152 9.407574 25.25 8.759392 25.25 8" stroke="none" fill-rule="nonzero" style="fill: rgb(255, 255, 255);"/>
            <path transform="matrix(1 0 0 1 0 0)" d="M33.75 9C 33.75 8.240608 33.48151 7.592427 32.94454 7.055456C 32.40757 6.518486 31.75939 6.25 31 6.25C 30.24061 6.25 29.59243 6.518486 29.05546 7.055456C 28.51849 7.592427 28.25 8.240608 28.25 9C 28.25 9.759392 28.51849 10.40757 29.05546 10.94454C 29.59243 11.48151 30.24061 11.75 31 11.75C 31.75939 11.75 32.40757 11.48151 32.94454 10.94454C 33.48151 10.40757 33.75 9.759392 33.75 9" stroke="none" fill-rule="nonzero" style="fill: rgb(255, 255, 255);"/>
            <path transform="matrix(1 0 0 1 0 0)" d="M41.75 12C 41.75 11.24061 41.48151 10.59243 40.94454 10.05546C 40.40757 9.518486 39.75939 9.25 39 9.25C 38.24061 9.25 37.59243 9.518486 37.05546 10.05546C 36.51849 10.59243 36.25 11.24061 36.25 12C 36.25 12.75939 36.51849 13.40757 37.05546 13.94454C 37.59243 14.48152 38.24061 14.75 39 14.75C 39.75939 14.75 40.40757 14.48152 40.94454 13.94454C 41.48151 13.40757 41.75 12.75939 41.75 12" stroke="none" fill-rule="nonzero" style="fill: rgb(255, 255, 255);"/>
            <path transform="matrix(1 0 0 1 0 0)" d="M9 26C 17.5 24.5 30 24.5 36 26L36 26L38.5 13.5L31 25L30.7 10.9L25.5 24.5L22.5 10L19.5 24.5L14.3 10.9L14 25L6.5 13.5L9 26z" stroke-width="1.5" style="stroke: rgb(255, 255, 255); fill: rgb(255, 255, 255);"/>
            <path transform="matrix(1 0 0 1 0 0)" d="M9 26C 9 28 10.5 28 11.5 30C 12.5 31.5 12.5 31 12 33.5C 10.5 34.5 11 36 11 36C 9.5 37.5 11 38.5 11 38.5C 17.5 39.5 27.5 39.5 34 38.5C 34 38.5 35.5 37.5 34 36C 34 36 34.5 34.5 33 33.5C 32.5 31 32.5 31.5 33.5 30C 34.5 28 36 28 36 26C 27.5 24.5 17.5 24.5 9 26z" stroke-width="1.5" style="stroke: rgb(255, 255, 255); fill: rgb(255, 255, 255);"/>
            <path transform="matrix(1 0 0 1 0 0)" d="M11 38.5C 18.44776 41.09098 26.55224 41.09098 34 38.5" stroke-width="1.5" fill="none" style="stroke: rgb(255, 255, 255);"/>
            <path d="M11 29C 18.44776 26.40902 26.55224 26.40902 34 29" stroke-width="1.5" fill="none" transform="matrix(1 0 0 1 0 0)" style="stroke-linecap: round; stroke: rgb(179, 0, 0);"/>
            <path transform="matrix(1 0 0 1 0 0)" d="M12.5 31.5L32.5 31.5" stroke-width="1.5" fill="none" style="stroke-linecap: round; stroke: rgb(179, 0, 0);"/>
            <path transform="matrix(1 0 0 1 0 0)" d="M11.5 34.5C 18.64271 36.86467 26.35729 36.86467 33.5 34.5" stroke-width="1.5" fill="none" style="stroke-linecap: round; stroke: rgb(179, 0, 0);"/>
            <path transform="matrix(1 0 0 1 0 0)" d="M10.5 37.5C 18.24998 40.32859 26.75002 40.32858 34.5 37.5" stroke-width="1.5" fill="none" style="stroke-linecap: round; stroke: rgb(179, 0, 0);"/>
        </g>
</svg>