<svg width="40px" height="40px" viewBox="0 0 40 40" version="1.1" baseProfile="full" xmlns="http://www.w3.org/2000/svg" xmlns:xlink="http://www.w3.org/1999/xlink">
  <g id="2br" transform="matrix(0.888889 0 0 0.888889 0 0)">
            <path transform="matrix(1 0 0 1 0 0)" d="M9 39L36 39L36 36L9 36L9 39z" stroke="#000000" stroke-width="1.5" style="stroke-linejoin: round;"/>
            <path transform="matrix(1 0 0 1 0 0)" d="M12.5 32L14 29.5L31 29.5L32.5 32L12.5 32z" stroke="#000000" stroke-width="1.5" style="stroke-linejoin: round;"/>
            <path transform="matrix(1 0 0 1 0 0)" d="M12 36L12 32L33 32L33 36L12 36z" stroke="#000000" stroke-width="1.5" style="stroke-linejoin: round;"/>
            <path transform="matrix(1 0 0 1 0 0)" d="M 14 29.5 L 14 16.5 L 25.156 16.5 L 31 16.5 L 31 29.5 L 14 29.5 Z" stroke="#000000" stroke-width="1.5" style="fill-rule: evenodd;"/>
            <path transform="matrix(1 0 0 1 0 0)" d="M 14 16.5 L 11 14 L 26.094 14 L 34 14 L 33.063 14.781 L 31 16.5 L 14 16.5 Z" stroke="#000000" stroke-width="1.5" style="stroke-linejoin: round; stroke-linecap: round;"/>
            <path transform="matrix(1 0 0 1 0 0)" d="M11 14L11 9L15 9L15 11L20 11L20 9L25 9L25 11L30 11L30 9L34 9L34 14L11 14z" stroke="#000000" stroke-width="1.5" style="stroke-linejoin: round;"/>
            <path transform="matrix(1 0 0 1 0 0)" d="M12 35.5L33 35.5" stroke-width="1" fill="none" style="stroke-linecap: round; stroke: rgb(242, 117, 0);"/>
            <path transform="matrix(1 0 0 1 0 0)" d="M13 31.5L32 31.5" stroke-width="1" fill="none" style="stroke-linecap: round; stroke: rgb(242, 117, 0);"/>
            <path transform="matrix(1 0 0 1 0 0)" d="M 14 29.5 L 21.471 29.5 L 27.281 29.5 L 31 29.5" stroke-width="1" style="fill: rgb(186, 218, 85); stroke-linecap: round; stroke: rgb(242, 117, 0);"/>
            <path transform="matrix(1 0 0 1 0 0)" d="M14 16.5L31 16.5" stroke-width="1" style="stroke-linejoin: round; stroke-linecap: round; stroke: rgb(242, 117, 0);"/>
            <path transform="matrix(1 0 0 1 0 0)" d="M11 14L34 14" stroke-width="1" fill="none" style="stroke-linecap: round; stroke: rgb(242, 117, 0);"/>
        </g>
</svg>