<svg width="40px" height="40px" viewBox="0 0 40 40" version="1.1" baseProfile="full" xmlns="http://www.w3.org/2000/svg" xmlns:xlink="http://www.w3.org/1999/xlink">
  <g id="2wn" transform="matrix(0.888889 0 0 0.888889 0 0)">
            <path transform="matrix(1 0 0 1 0 0)" d="M22 10C 32.5 11 38.5 18 38 39L38 39L15 39C 15 30 25 32.5 23 18" stroke-width="1.5" fill-rule="nonzero" style="fill: rgb(255, 255, 255); stroke: rgb(255, 255, 255);"/>
            <path transform="matrix(1 0 0 1 0 0)" d="M24 18C 24.38 20.91 18.45 25.37 16 27C 13 29 13.18 31.34 11 31C 9.958 30.06 12.41 27.96 11 28C 10 28 11.19 29.23 10 30C 9 30 5.997 31 6 26C 6 24 12 14 12 14C 12 14 13.89 12.1 14 10.5C 13.27 9.506 13.5 8.5 13.5 7.5C 14.5 6.5 16.5 10 16.5 10L16.5 10L18.5 10C 18.5 10 19.28 8.008 21 7C 22 7 22 10 22 10" stroke-width="1.5" fill-rule="nonzero" style="fill: rgb(255, 255, 255); stroke: rgb(255, 255, 255);"/>
            <path transform="matrix(1 0 0 1 0 0)" d="M9.5 25.5C 9.5 25.67863 9.4047 25.8437 9.25 25.93301C 9.0953 26.02233 8.9047 26.02233 8.75 25.93301C 8.5953 25.8437 8.5 25.67863 8.5 25.5C 8.5 25.32137 8.5953 25.1563 8.75 25.06699C 8.9047 24.97767 9.0953 24.97767 9.25 25.06699C 9.4047 25.1563 9.5 25.32137 9.5 25.5z" stroke-width="1.5" fill-rule="nonzero" style="stroke: rgb(242, 117, 0); fill: rgb(242, 117, 0);"/>
            <path transform="matrix(0.866 0.5 -0.5 0.866 9.693 -5.173)" d="M 15 15.5 C 15 16.036 14.905 16.531 14.75 16.799 C 14.595 17.067 14.405 17.067 14.25 16.799 C 14.095 16.531 14 16.036 14 15.5 C 14 14.964 14.095 14.469 14.25 14.201 C 14.405 13.933 14.595 13.933 14.75 14.201 C 14.798 14.284 14.84 14.389 14.875 14.509 C 14.955 14.779 15 15.13 15 15.5 Z" stroke-width="1.5" fill-rule="nonzero" style="stroke: rgb(242, 117, 0);"/>
            <path transform="matrix(1 0 0 1 0 0)" d="M24.55 10.4L24.1 11.85L24.6 12C 27.75 13 30.25 14.49 32.5 18.75C 34.75 23.01 35.75 29.06 35.25 39L35.25 39L35.2 39.5L37.45 39.5L37.5 39C 38 28.94 36.62 22.15 34.25 17.66C 31.88 13.17 28.46 11.02 25.06 10.5L25.06 10.5L24.55 10.4z" stroke="none" fill-rule="nonzero" style="fill: rgb(242, 117, 0);"/>
        </g>
</svg>