<?xml version="1.0" encoding="utf-8"?>
<svg viewBox="0 0 2048 2048" xmlns="http://www.w3.org/2000/svg">
  <g id="g2838" style="fill:#f9f9f9" transform="matrix(1, 0, 0, 1, -2.842170943040401e-14, 2.842170943040401e-14)">
    <path id="path3933" d="M 601.992 1848.215 L 1426.398 1848.215 C 1441.605 1696.465 1418.573 1497.323 1447.551 1376.4 C 1474.636 1263.377 1547.157 1218.686 1738.805 1344.893 C 1720.261 1173.179 1675.207 1056.829 1615.941 989.121 C 1573.434 940.56 1523.617 917.02 1471.028 916.021 C 1419.204 915.037 1364.688 935.942 1311.82 976.362 C 1271.79 1006.968 1232.705 1048.764 1196.45 1100.719 C 1183.006 1119.985 1169.951 1140.648 1157.381 1162.656 C 1157.381 1162.656 1111.541 1071.992 1094.535 1024.481 C 998.38 755.841 1027.273 447.505 1164.044 213.689 C 837.876 337.532 758.841 622.4 765.122 866.871 C 768.288 990.122 793.14 1103.106 818.941 1180.011 C 493.426 854.388 276.93 1166.056 211.483 1344.893 C 469.915 1235.887 574.621 1425.781 601.992 1848.215 Z" style="fill-opacity: 1; stroke-width: 75; stroke-linecap: round; stroke-linejoin: miter; stroke-miterlimit: 4; stroke-dasharray: none; stroke-opacity: 1; fill: rgb(0, 0, 0); stroke: rgb(63, 72, 204);"/>
    <ellipse id="path3935" style="fill-opacity: 1; stroke-width: 56.0592; stroke-linecap: round; stroke-linejoin: round; stroke-miterlimit: 4; stroke-dasharray: none; stroke-opacity: 1; fill: rgb(0, 0, 0); stroke: rgb(63, 72, 204);" cx="1743.144" cy="1596.554" rx="75.733" ry="62.716"/>
    <ellipse transform="matrix(0.88748, -0.460847, 0.460847, 0.88748, -36.773429, 19.801787)" id="path3935-8" style="fill-opacity: 1; stroke-width: 56.0592; stroke-linecap: round; stroke-linejoin: round; stroke-miterlimit: 4; stroke-dasharray: none; stroke-opacity: 1; fill: rgb(0, 0, 0); stroke: rgb(63, 72, 204);" cx="-440.367" cy="1401.744" rx="75.733" ry="62.716"/>
    <ellipse transform="matrix(0.0879, -0.996129, 0.996129, 0.0879, -14.143662, 8.486192)" id="path3935-2" style="fill-opacity: 1; stroke-width: 56.0592; stroke-linecap: round; stroke-linejoin: round; stroke-miterlimit: 4; stroke-dasharray: none; stroke-opacity: 1; fill: rgb(0, 0, 0); stroke: rgb(63, 72, 204);" cx="-125.198" cy="1284.962" rx="75.733" ry="62.716"/>
    <path id="path3968" d="M 1738.806 1336.215 L 1776.059 1525.551" style="fill: rgb(249, 249, 249); stroke-width: 60; stroke-linecap: round; stroke-linejoin: miter; stroke-miterlimit: 4; stroke-dasharray: none; stroke-opacity: 1; stroke: rgb(63, 72, 204);"/>
  </g>
</svg>