<svg width="40px" height="40px" viewBox="0 0 40 40" version="1.1" baseProfile="full" xmlns="http://www.w3.org/2000/svg" xmlns:xlink="http://www.w3.org/1999/xlink">
  <g id="1wk" transform="matrix(0.888889 0 0 0.888889 0 0)">
            <path transform="matrix(1 0 0 1 0 0)" d="M22.5 11.63L22.5 6" stroke-width="1.5" fill="none" style="stroke-linecap: round; stroke: rgb(255, 255, 255);"/>
            <path transform="matrix(1 0 0 1 0 0)" d="M22.5 25C 22.5 25 27 17.5 25.5 14.5C 25.5 14.5 24.5 12 22.5 12C 20.5 12 19.5 14.5 19.5 14.5C 18 17.5 22.5 25 22.5 25" stroke-width="1.5" fill-rule="nonzero" style="stroke: rgb(255, 255, 255); fill: rgb(255, 255, 255);"/>
            <path transform="matrix(1 0 0 1 0 0)" d="M12.5 37C 18 40.5 27 40.5 32.5 37L32.5 37L32.5 30C 32.5 30 41.5 25.5 38.5 19.5C 34.5 13 25 16 22.5 23.5L22.5 23.5L22.5 27L22.5 23.5C 20 16 10.5 13 6.5 19.5C 3.5 25.5 12.5 30 12.5 30L12.5 30L12.5 37" stroke-width="1.5" fill-rule="nonzero" style="stroke-linecap: round; stroke-linejoin: round; stroke: rgb(255, 255, 255); fill: rgb(255, 255, 255);"/>
            <path transform="matrix(1 0 0 1 0 0)" d="M20 8L25 8" stroke-width="1.5" fill="none" style="stroke-linecap: round; stroke: rgb(255, 255, 255);"/>
            <path transform="matrix(1 0 0 1 0 0)" d="M 32 29.5 C 32 29.5 40.5 25.5 38.03 19.85 C 34.15 14 25 18 22.5 24.5 L 22.5 26.6 L 22.5 26.206 L 22.5 24.5 C 20 18 10.85 14 6.97 19.85 C 4.5 25.5 13 29.5 13 29.5" stroke-width="1.5" fill="none" style="stroke-linejoin: round; stroke-linecap: round; stroke: rgb(255, 213, 0);"/>
            <path transform="matrix(1 0 0 1 0 0)" d="M12.5 30C 18 27 27 27 32.5 30M12.5 33.5C 18 30.5 27 30.5 32.5 33.5M12.5 37C 18 34 27 34 32.5 37" stroke-width="1.5" fill="none" style="stroke-linecap: round; stroke: rgb(255, 213, 0);"/>
        </g>
</svg>